<svg width="61" height="44" viewBox="0 0 61 44" fill="none" xmlns="http://www.w3.org/2000/svg">
<path d="M59.2985 28.2004L33.4798 43.2577C32.9286 43.5794 32.2474 43.5822 31.6927 43.266C31.1386 42.9494 30.7966 42.3618 30.796 41.7251L30.7908 34.9262C30.7598 34.9187 30.7356 34.9126 30.7189 34.908C30.0737 34.7286 29.388 34.5311 28.5614 34.2864C25.8806 33.4926 23.1268 32.4634 19.8949 31.0474C17.0904 29.8188 14.3464 28.233 11.7394 26.3341C9.87649 24.9772 8.12367 23.4125 6.5299 21.6834C2.19317 16.9792 -0.182897 10.7326 0.0110053 4.54498C0.0449926 3.46099 0.167289 2.42072 0.282468 1.54607C0.396921 0.676476 1.1307 0.0201263 2.01059 0.00043869C2.0241 0.000148773 2.03761 0 2.05083 0C2.91358 0 3.6555 0.617126 3.80626 1.46775C4.28615 4.17163 5.05159 6.39287 6.1463 8.25858C7.51451 10.5898 9.37408 12.5472 11.5234 13.9191C13.3706 15.0983 15.322 16.0031 17.4894 16.6859C20.0174 17.4826 22.8049 17.9819 26.011 18.2125C27.3047 18.3057 28.6984 18.3525 30.3974 18.3603C30.4489 18.3603 30.559 18.3593 30.7022 18.3574L30.7068 11.9458C30.7072 11.3129 31.0455 10.7279 31.5947 10.4103C32.144 10.0924 32.8214 10.0898 33.3732 10.4032L59.2806 25.1224C59.8341 25.4369 60.177 26.0214 60.1805 26.6565C60.1846 27.2911 59.8482 27.8796 59.2985 28.2004Z" fill="#AD2320"/>
</svg>
