<svg width="26" height="24" viewBox="0 0 26 24" fill="none" xmlns="http://www.w3.org/2000/svg">
<path fill-rule="evenodd" clip-rule="evenodd" d="M14.8926 5.90701C14.9266 5.99109 14.9364 5.99549 15.0077 6.08514C16.0588 7.40649 15.2744 8.89637 14.7317 9.12049C14.5595 8.82831 14.2429 8.58736 14.0522 8.2707C14.1484 8.10865 14.2892 7.99817 14.354 7.75022C14.6729 6.53014 12.9005 5.89413 12.3894 7.08276C12.1421 7.65791 12.4728 8.00909 12.6472 8.2707C12.5645 8.42406 12.0686 8.98942 11.9311 9.1125C11.6838 8.95668 11.4119 8.56303 11.2782 8.16479C11.073 7.55328 11.1567 6.8673 11.5031 6.32785C12.0287 5.50929 13.0125 5.10795 13.9618 5.39083C14.4705 5.54241 14.5946 5.77525 14.8926 5.90701ZM16.8016 4.41173C17.1614 4.73315 17.5884 5.52487 17.7733 6.12392C18.004 6.87161 18.0451 7.72739 17.8683 8.50158C17.5831 9.75091 16.6354 11.0961 15.5272 11.5532C15.6268 12.5206 16.8379 16.2527 16.5868 16.711C16.3715 17.104 15.8491 17.0077 15.3179 17.0077C13.8954 17.0076 11.8486 17.0617 10.5635 17.0025C9.88649 16.8893 10.0346 16.3679 10.168 15.816C10.3139 15.2123 11.1395 11.8799 11.1697 11.5621C10.812 11.4082 10.2695 10.9889 9.9997 10.6913C8.2109 8.71823 8.33197 5.8798 10.1301 4.15405C11.3883 2.94651 13.3627 2.51253 14.9954 3.15669C15.8512 3.49429 16.3186 3.89022 16.8016 4.41173ZM25.2993 4.35317C25.465 3.55477 25.7169 2.36192 25.7506 1.53615C16.5059 -0.784535 7.96854 -0.397195 0 2.16785C0.033906 2.78435 0.349594 3.96591 0.506709 4.58737C2.01909 10.5696 5.68963 17.1581 10.3714 21.367C11.0069 21.9383 12.9503 23.6793 13.5354 24C13.8036 23.8763 15.5199 22.2442 15.8128 21.9511C20.6128 17.1457 23.9158 11.017 25.2993 4.35317ZM10.0623 6.31365C9.43034 8.06396 10.3025 9.9591 11.9661 10.6863C12.6852 11.0007 12.376 11.5121 12.0777 12.738C11.8393 13.7174 11.5018 14.8807 11.3385 15.8625L15.359 15.8604C15.2347 15.1449 14.2712 11.478 14.2872 11.211C14.3162 10.7267 14.9825 10.6122 15.3477 10.3495C16.8603 9.26196 17.3006 7.23874 16.3217 5.66365C15.8819 5.0311 15.6129 4.70726 14.8447 4.33507C13.9175 3.88591 12.7512 3.88174 11.8322 4.34116C11.0008 4.75683 10.3794 5.43536 10.0623 6.31365Z" fill="#B32521"/>
<path fill-rule="evenodd" clip-rule="evenodd" d="M15.4876 7.91886C15.3718 8.53137 15.0182 9.00222 14.7318 9.1205C14.7224 9.10451 14.7125 9.08868 14.7023 9.07299C13.4525 11.0864 12.6281 13.3911 12.3539 15.862L15.3591 15.8604C15.2349 15.1449 14.2714 11.478 14.2874 11.211C14.3164 10.7267 14.9826 10.6122 15.3479 10.3495C16.6086 9.44299 17.1242 7.8864 16.6941 6.4811C16.2654 6.93666 15.8622 7.41643 15.4876 7.91886ZM13.5098 23.9855C12.7 22.0466 12.2521 19.9189 12.2521 17.6863C12.2521 17.4664 12.2577 17.2479 12.2663 17.0301C13.3024 17.0286 14.4315 17.0077 15.318 17.0077C15.8492 17.0077 16.3716 17.104 16.5869 16.711C16.8381 16.2527 15.627 12.5206 15.5273 11.5532C16.6355 11.0961 17.5832 9.75091 17.8684 8.50159C18.0452 7.72739 18.0042 6.87161 17.7734 6.12393C17.7236 5.96233 17.6561 5.78674 17.577 5.61012C19.818 3.56164 22.6311 2.12884 25.7488 1.57886C25.7085 2.40262 25.4623 3.56843 25.2994 4.35317C23.9159 11.017 20.6129 17.1457 15.8129 21.9511C15.5201 22.2443 13.8037 23.8763 13.5355 24C13.5272 23.9955 13.5186 23.9906 13.5098 23.9855Z" fill="#A5221D"/>
<path fill-rule="evenodd" clip-rule="evenodd" d="M10.7777 5.17679C10.899 4.89297 11.4661 4.52419 11.8322 4.34117C12.7512 3.88174 13.9175 3.88592 14.8447 4.33508C15.2143 4.51416 15.6966 4.81333 15.8971 5.15224C16.0131 5.16207 15.9098 5.10483 16.0278 5.24093L16.3217 5.66366C17.3006 7.23875 16.8603 9.26197 15.3477 10.3495C14.9825 10.6122 14.3162 10.7267 14.2872 11.211C14.2712 11.478 15.2347 15.1449 15.359 15.8604L11.3385 15.8625C11.5018 14.8807 11.8393 13.7174 12.0777 12.738C12.376 11.5121 12.6852 11.0007 11.9661 10.6863C10.3025 9.95911 9.43032 8.06397 10.0623 6.31366C10.1511 6.06775 10.5088 5.30486 10.7777 5.17679ZM12.2432 2.97614C11.7517 3.22308 11.1311 3.1934 10.1301 4.15405C8.33196 5.8798 8.21088 8.71823 9.99969 10.6913C10.126 10.8307 10.3169 10.9318 10.3986 11.1045C10.5825 11.1486 10.7983 11.4022 11.1696 11.5621C11.1394 11.8799 10.3139 15.2123 10.168 15.816C10.0345 16.3679 9.88647 16.8893 10.5635 17.0025C11.8485 17.0617 13.8954 17.0076 15.3179 17.0077C15.8491 17.0077 16.3714 17.104 16.5868 16.711C16.8379 16.2527 15.6268 12.5206 15.5271 11.5532C16.6353 11.0961 17.583 9.75091 17.8683 8.50159C18.045 7.72739 18.004 6.87162 17.7733 6.12393C17.5884 5.52487 17.1614 4.73316 16.8016 4.41173C16.3185 3.89023 15.8512 3.4943 14.9954 3.1567C14.0257 2.77412 13.3004 2.82172 12.2432 2.97614Z" fill="white"/>
<path fill-rule="evenodd" clip-rule="evenodd" d="M11.2578 6.77109C11.2582 7.13621 11.0428 7.46317 11.2782 8.16479C11.4118 8.56303 11.6837 8.95668 11.9311 9.1125C12.0686 8.98942 12.5645 8.42405 12.6472 8.2707C12.4728 8.00909 12.1421 7.65791 12.3894 7.08276C12.9005 5.89413 14.6729 6.53014 14.354 7.75022C14.2891 7.99817 14.1484 8.10865 14.0522 8.2707C14.2429 8.58736 14.5595 8.82831 14.7317 9.12049C15.2744 8.89637 16.0588 7.40649 15.0077 6.08514C14.9364 5.99549 14.9266 5.99109 14.8926 5.90701C14.5945 5.77525 14.4705 5.54241 13.9618 5.39083C13.0125 5.10794 12.0287 5.50929 11.5031 6.32784C11.447 6.41515 11.4222 6.46387 11.3778 6.5576L11.2578 6.77109Z" fill="white"/>
</svg>
